# Blender3D v249 OBJ File: 
# www.blender3d.org
v 1.000000 1.000000 -1.000000
v 1.000000 -1.000000 -1.000000
v -1.000000 -1.000000 -1.000000
v -1.000000 1.000000 -1.000000
v 1.000000 0.999999 1.000000
v 0.999999 -1.000001 1.000000
v -1.000000 -1.000000 1.000000
v -1.000000 1.000000 1.000000
vt 0.666667 0.333333
vt 0.666667 0.666667
vt 0.333333 0.333333
vt 0.333333 0.666667
vt 1.000000 0.333333
vt 1.000000 0.666667
vt 0.000000 0.333333
vt 0.000000 0.666667
vt 0.666667 0.000000
vt 0.333333 0.000000
vt 0.000000 0.000000
vt 0.666667 1.000000
vt 0.333333 1.000000
vn 0.000000 1.000000 0.000000
vn -1.000000 0.000000 -0.000000
vn -0.000000 -1.000000 -0.000000
vn 1.000000 0.000000 -0.000000
vn 1.000000 -0.000001 0.000000
vn -0.000000 0.000000 1.000000
vn 0.000000 0.000000 -1.000000

f 5/1/1 1/2/1 8/3/1
f 1/2/1 4/4/1 8/3/1
f 3/2/2 7/1/2 8/5/2
f 3/2/2 8/5/2 4/6/2
f 2/3/3 6/4/3 3/7/3
f 6/4/3 7/8/3 3/7/3
f 1/9/4 5/1/4 2/10/4
f 5/1/5 6/3/5 2/10/5
f 5/3/6 8/7/6 7/11/6
f 5/3/6 7/11/6 6/10/6
f 1/12/7 2/13/7 3/4/7
f 1/12/7 3/4/7 4/2/7
