# Blender v2.57 (sub 1) OBJ File: ''
# www.blender.org
g Cube.001
v -0.350258 2.558622 2.744750
v 0.895636 1.737745 1.412868
v -0.657349 1.295321 0.232826
v -1.903242 2.116198 1.564709
vt 0.000000 0.000000
vt 0.500000 0.500000
vt 0.000000 1.000000
vt 0.500000 1.000000
vt 0.500000 0.000000
vt 1.000000 0.500000
vn 0.094853 0.884650 -0.456506
usemtl Material
s off
f 1/1/1 2/2/1 3/3/1
f 1/4/1 3/5/1 4/6/1
g Cube
v 1.000000 1.000000 -1.000000
v 1.000000 -1.000000 -1.000000
v -1.000000 -1.000000 -1.000000
v -1.000000 1.000000 -1.000000
vt 0.000000 0.000000
vt 0.500000 0.500000
vt 0.000000 1.000000
vt 0.500000 1.000000
vt 0.500000 0.000000
vt 1.000000 0.500000
vn 0.000000 0.000000 -1.000000
usemtl Material
s off
f 5/7/2 6/8/2 7/9/2
f 5/10/2 7/11/2 8/12/2
